<svg id="visual" viewBox="0 0 900 600" width="900" height="600" xmlns="http://www.w3.org/2000/svg" xmlns:xlink="http://www.w3.org/1999/xlink" version="1.1"><rect x="0" y="0" width="900" height="600" fill="#eaffe5"></rect><defs><linearGradient id="grad1_0" x1="33.3%" y1="0%" x2="100%" y2="100%"><stop offset="20%" stop-color="#85adeb" stop-opacity="1"></stop><stop offset="80%" stop-color="#85adeb" stop-opacity="1"></stop></linearGradient></defs><defs><linearGradient id="grad1_1" x1="33.3%" y1="0%" x2="100%" y2="100%"><stop offset="20%" stop-color="#85adeb" stop-opacity="1"></stop><stop offset="80%" stop-color="#8fdfe6" stop-opacity="1"></stop></linearGradient></defs><defs><linearGradient id="grad1_2" x1="33.3%" y1="0%" x2="100%" y2="100%"><stop offset="20%" stop-color="#eaffe5" stop-opacity="1"></stop><stop offset="80%" stop-color="#8fdfe6" stop-opacity="1"></stop></linearGradient></defs><defs><linearGradient id="grad2_0" x1="0%" y1="0%" x2="66.7%" y2="100%"><stop offset="20%" stop-color="#85adeb" stop-opacity="1"></stop><stop offset="80%" stop-color="#85adeb" stop-opacity="1"></stop></linearGradient></defs><defs><linearGradient id="grad2_1" x1="0%" y1="0%" x2="66.7%" y2="100%"><stop offset="20%" stop-color="#8fdfe6" stop-opacity="1"></stop><stop offset="80%" stop-color="#85adeb" stop-opacity="1"></stop></linearGradient></defs><defs><linearGradient id="grad2_2" x1="0%" y1="0%" x2="66.7%" y2="100%"><stop offset="20%" stop-color="#8fdfe6" stop-opacity="1"></stop><stop offset="80%" stop-color="#eaffe5" stop-opacity="1"></stop></linearGradient></defs><g transform="translate(900, 0)"><path d="M0 269C-49.1 265.9 -98.3 262.8 -139.5 241.6C-180.7 220.5 -214 181.3 -239 138C-264 94.7 -280.7 47.4 -297.5 0L0 0Z" fill="#bbf0df"></path><path d="M0 179.3C-32.8 177.3 -65.5 175.2 -93 161.1C-120.5 147 -142.7 120.9 -159.3 92C-176 63.1 -187.2 31.6 -198.3 0L0 0Z" fill="#76c9ee"></path><path d="M0 89.7C-16.4 88.6 -32.8 87.6 -46.5 80.5C-60.2 73.5 -71.3 60.4 -79.7 46C-88 31.6 -93.6 15.8 -99.2 0L0 0Z" fill="#85adeb"></path></g><g transform="translate(0, 600)"><path d="M0 -286C55.6 -282.5 111.2 -279.1 144.5 -250.3C177.8 -221.5 188.7 -167.4 210.4 -121.5C232.2 -75.6 264.8 -37.8 297.5 0L0 0Z" fill="#bbf0df"></path><path d="M0 -190.7C37.1 -188.4 74.2 -186 96.3 -166.9C118.5 -147.7 125.8 -111.6 140.3 -81C154.8 -50.4 176.6 -25.2 198.3 0L0 0Z" fill="#76c9ee"></path><path d="M0 -95.3C18.5 -94.2 37.1 -93 48.2 -83.4C59.3 -73.8 62.9 -55.8 70.1 -40.5C77.4 -25.2 88.3 -12.6 99.2 0L0 0Z" fill="#85adeb"></path></g></svg>