<svg width="1440" height="502" viewBox="0 0 1440 502" fill="none" xmlns="http://www.w3.org/2000/svg">
<path opacity="0.4" d="M-118.834 1.44246C-359.834 17.9425 -320.334 160.942 -320.334 160.942C-320.334 160.942 -798.833 457.442 -320.334 502.442H1096C1124 470.5 1162 463.5 968.667 277.942C775.333 92.3848 473.666 189.942 473.666 189.942C340.166 39.9425 158.166 115.442 158.166 115.442C158.166 115.442 122.166 -15.0575 -118.834 1.44246Z" fill="#CFDBF4"/>
<path d="M1305.67 142.441C1581.68 158.927 1536.44 301.801 1536.44 301.801C1536.44 301.801 2084.45 598.04 1536.44 643H-85.6418C-117.709 611.086 -161.23 604.092 60.189 418.698C281.608 233.303 627.097 330.775 627.097 330.775C779.99 180.907 988.429 256.341 988.429 256.341C988.429 256.341 1029.66 125.956 1305.67 142.441Z" fill="#CFDBF4"/>
</svg>
