<svg width="390" height="247" viewBox="0 0 390 247" fill="none" xmlns="http://www.w3.org/2000/svg">
<path d="M259.578 107.587C259.578 107.587 270.803 60.5754 345.943 66.5194C365.725 68.0842 379.88 71.6716 390 76.108V247H-0.153992V174C2.07254 171.479 4.41431 168.856 6.87637 166.126C67.1549 99.2805 161.21 134.425 161.21 134.425C202.834 80.3886 259.578 107.587 259.578 107.587Z" fill="#CFDBF4"/>
<path opacity="0.4" d="M178.157 74.5447C130.615 11.4935 63.5561 37.6609 63.5561 37.6609C63.5561 37.6609 55.7797 1.86249 0 0V247H349.5C358.219 232.232 377.707 214.423 317.501 128.636C257.295 42.8491 178.157 74.5447 178.157 74.5447Z" fill="#CFDBF4"/>
</svg>
