<svg width="389" height="671" viewBox="0 0 389 671" fill="none" xmlns="http://www.w3.org/2000/svg">
<path d="M70.747 47C13.3736 47 0 76.1009 0 76.1009V666.23L389 671V138.034C340.084 98.9436 272.405 138.034 272.405 138.034C230.59 44.3115 147 84.5 147 84.5C147 84.5 128.12 47 70.747 47Z" fill="#F4FFF1"/>
<path opacity="0.3" d="M318.253 0C375.626 -1.14576e-05 389 29.1009 389 29.1009V619.23L0 624V91.0338C48.9155 51.9436 116.595 91.0338 116.595 91.0338C158.41 -2.68855 242 37.5 242 37.5C242 37.5 260.88 1.14576e-05 318.253 0Z" fill="#F4FFF1"/>
</svg>
