<svg id="visual" viewBox="0 0 900 600" width="900" height="600" xmlns="http://www.w3.org/2000/svg" xmlns:xlink="http://www.w3.org/1999/xlink" version="1.1"><rect x="0" y="0" width="900" height="600" fill="#F4FFF1"></rect><path d="M0 470L37.5 478.7C75 487.3 150 504.7 225 509.8C300 515 375 508 450 502.2C525 496.3 600 491.7 675 501.2C750 510.7 825 534.3 862.5 546.2L900 558L900 601L862.5 601C825 601 750 601 675 601C600 601 525 601 450 601C375 601 300 601 225 601C150 601 75 601 37.5 601L0 601Z" fill="#BBF0DF" stroke-linecap="round" stroke-linejoin="miter"></path></svg>