<svg width="1440" height="726" viewBox="0 0 1440 726" fill="none" xmlns="http://www.w3.org/2000/svg">
<path opacity="0.3" d="M1176.5 0C1387.89 -1.14441e-05 1439 85.5158 1439 85.5158V612H-1.65991L-1.66003 241.081C35.9124 211.638 76.4139 189.123 117.842 172.049C326.36 86.1094 467.342 131 467.342 131C691.342 -37 891.943 85.5158 891.943 85.5158C891.943 85.5158 965.113 1.14441e-05 1176.5 0Z" fill="#F4FFF1"/>
<path d="M268.16 77C56.7735 77 1 199.516 1 199.516V726H1441.66L1441.66 355.081C1404.09 325.638 1363.59 303.123 1322.16 286.049C1113.64 200.109 972.66 245 972.66 245C748.66 77 546.5 172.5 546.5 172.5C546.5 172.5 479.547 77 268.16 77Z" fill="#F4FFF1"/>
</svg>
